OpenSim_Sub08_CSBaseline_RCS.mot
version=1
nRows=74
nColumns=11
inDegrees=no
endheader
time	Top_Thigh	Med_Thigh	Bot_Thigh	Top_Shank	2nd_Top_Shank	2nd_Bot_Shank	Bot_Shank	BNOx	BNOy	BNOZ
13.65000000	1845.48758200	1744.93564695	1505.78485597	1336.19568611	1324.36698419	1315.41898191	1151.35247510	73.62134621	-64.61548322	151.49768061
13.66000000	1844.60481761	1745.15532779	1505.27212271	1335.52684688	1323.44571713	1317.51373487	1152.55562739	69.79183086	-66.40305474	145.44574504
13.67000000	1843.26371944	1744.62798557	1504.69591153	1334.34875740	1322.56834515	1318.05181850	1153.32238715	65.77811369	-67.89426424	131.23416019
13.68000000	1841.41975709	1743.27958200	1503.97664461	1332.72127083	1321.76713816	1316.96708076	1153.62880976	61.58023251	-69.06108998	108.92380793
13.69000000	1839.14404628	1741.24743434	1503.09760120	1330.75090281	1321.08402845	1314.57169699	1153.55209180	57.23921343	-69.92751882	80.29078418
13.70000000	1836.51273084	1738.67804926	1502.04479343	1328.54619776	1320.56136840	1311.19429158	1153.17382731	52.79786461	-70.51979883	47.18575937
13.71000000	1833.60195458	1735.71793342	1500.80423343	1326.21570013	1320.24151040	1307.16348891	1152.57561034	48.29899424	-70.86417810	11.45940396
13.72000000	1830.48786133	1732.51359346	1499.36193336	1323.86795435	1320.16680682	1302.80791335	1151.83903493	43.78541049	-70.98690473	-25.03761161
13.73000000	1827.24659490	1729.21153605	1497.70390534	1321.61150484	1320.37961005	1298.45618929	1151.04569511	39.29992156	-70.91422681	-60.45461691
13.74000000	1823.95429911	1725.95826784	1495.81616152	1319.55489604	1320.92227248	1294.43694109	1150.27718492	34.88533561	-70.67239242	-92.94094149
13.75000000	1820.68711778	1722.90029549	1493.68471404	1317.80667239	1321.83714647	1291.07879314	1149.61509841	30.58446083	-70.28764966	-120.64591490
13.76000000	1817.52119473	1720.18412565	1491.29557503	1316.47537831	1323.16658442	1288.71036981	1149.14102962	26.44010540	-69.78624661	-141.71886671
13.77000000	1814.53286792	1717.95120840	1488.63587429	1315.66649247	1324.94766341	1287.64698476	1148.93342937	22.49573015	-69.19468917	-154.39103386
13.78000000	1811.80294073	1716.22669273	1485.71844748	1315.41498080	1327.09612853	1287.89780501	1148.99845470	18.80980669	-68.54541306	-158.77752330
13.79000000	1809.41668190	1714.91942646	1482.58183617	1315.68529650	1329.40639295	1289.16585091	1149.26996885	15.45581745	-67.87678377	-156.87731198
13.80000000	1807.45955435	1713.93320089	1479.26569955	1316.43882699	1331.66759448	1291.14083213	1149.67869183	12.50789749	-67.22742462	-150.77128422
13.81000000	1806.01702099	1713.17180729	1475.80969683	1317.63695969	1333.66887098	1293.51245831	1150.15534369	10.04018190	-66.63595893	-142.54032437
13.82000000	1805.17454473	1712.53903694	1472.25348722	1319.24108204	1335.19936027	1295.97043909	1150.63064443	8.12680572	-66.14101001	-134.26531677
13.83000000	1805.01755601	1711.93870849	1468.63674562	1321.21256700	1336.04826080	1298.20454738	1151.03533099	6.84187269	-65.78119008	-128.02662960
13.84000000	1805.58841868	1711.31095359	1465.01999589	1323.49360675	1336.08518435	1299.98850764	1151.32256524	6.21790072	-65.58037642	-125.21970773
13.85000000	1806.80152992	1710.70380310	1461.52571161	1325.96940038	1335.41868005	1301.34549484	1151.51214175	6.16384107	-65.51866340	-125.20483950
13.86000000	1808.54762788	1710.18523675	1458.28781994	1328.51460979	1334.20147288	1302.34480356	1151.63617446	6.56579945	-65.56805065	-126.96604415
13.87000000	1810.71745071	1709.82323432	1455.44024801	1331.00389691	1332.58628781	1303.05572834	1151.72677730	7.30988156	-65.70053776	-129.48734090
13.88000000	1813.20173655	1709.68577553	1453.11692297	1333.31192367	1330.72584980	1303.54756374	1151.81606420	8.28219311	-65.88812437	-131.75274899
13.89000000	1815.89122354	1709.84084014	1451.45177198	1335.31335197	1328.77288383	1303.88960433	1151.93614909	9.36883981	-66.10281006	-132.74628766
13.90000000	1818.68020952	1710.35298532	1450.57150144	1336.88886186	1326.87491617	1304.14922521	1152.11790554	10.46001993	-66.31758761	-131.50423836
13.91000000	1821.51625593	1711.23555630	1450.49477409	1338.00918197	1325.10168527	1304.36508082	1152.37364770	11.50716895	-66.52031012	-127.84488023
13.92000000	1824.38792662	1712.46247524	1451.15708044	1338.71436060	1323.46304836	1304.55371639	1152.70140259	12.50886285	-66.71027027	-122.18847578
13.93000000	1827.28484019	1714.00665024	1452.49177153	1339.04622915	1321.96732232	1304.73110838	1153.09882976	13.46489021	-66.88705497	-114.97077262
13.94000000	1830.19661522	1715.84098936	1454.43219839	1339.04661904	1320.62282401	1304.91323331	1153.56358872	14.37503963	-67.05025116	-106.62751835
13.95000000	1833.11287029	1717.93840069	1456.91171205	1338.75736169	1319.43787030	1305.11606766	1154.09333900	15.23909968	-67.19944577	-97.59446059
13.96000000	1836.02322400	1720.27179230	1459.86366356	1338.22028850	1318.42077808	1305.35558792	1154.68574014	16.05685898	-67.33422571	-88.30734694
13.97000000	1838.91729491	1722.81407227	1463.22140393	1337.47723091	1317.57986421	1305.64777057	1155.33845166	16.82810609	-67.45417792	-79.20192502
13.98000000	1841.78470163	1725.53814867	1466.91828422	1336.57002031	1316.92344556	1306.00859211	1156.04913308	17.55262962	-67.55888933	-70.71394244
13.99000000	1844.61506273	1728.41692959	1470.88765545	1335.54048813	1316.45983901	1306.45402904	1156.81544394	18.23021816	-67.64794686	-63.27914679
14	1847.39799680	1731.42332310	1475.06286866	1334.43046579	1316.19736144	1307.00005783	1157.63504377	18.86066029	-67.72093743	-57.33328571
14.01000000	1850.12312242	1734.53023728	1479.37727488	1333.28178469	1316.14432970	1307.66265498	1158.50559208	19.44374460	-67.77744798	-53.31210678
14.02000000	1852.78005819	1737.71058021	1483.76422514	1332.13627626	1316.30906068	1308.45779697	1159.42474841	19.97925969	-67.81706543	-51.65135762
14.03000000	1855.35842268	1740.93725996	1488.15707048	1331.03577191	1316.69987126	1309.40146031	1160.39017229	20.46699414	-67.83937672	-52.78678585
14.04000000	1857.84783448	1744.18318461	1492.48916194	1330.02210306	1317.32507829	1310.50962147	1161.39952325	20.90673655	-67.84396875	-57.15413907
14.05000000	1860.23791218	1747.42126224	1496.69385055	1329.13710111	1318.19299866	1311.79825696	1162.45046081	21.29827551	-67.83042847	-65.18916489
14.06000000	1862.51827436	1750.62440093	1500.70448734	1328.42259749	1319.31194923	1313.28334325	1163.54064449	21.64139960	-67.79834280	-77.32761092
14.07000000	1864.67853960	1753.76550875	1504.45442334	1327.92042362	1320.69024688	1314.98085684	1164.66773384	21.93589741	-67.74729867	-94.00522477
14.08000000	1866.70832650	1756.81749378	1507.87700960	1327.67241090	1322.33620849	1316.90677422	1165.82938837	22.18155755	-67.67688300	-115.65775405
14.09000000	1868.59725363	1759.75326411	1510.90559714	1327.72039075	1324.25815092	1319.07707187	1167.02326761	22.37816858	-67.58668273	-142.72094637
14.10000000	1870.33495372	1762.54575886	1513.47369448	1328.10600303	1326.46415804	1321.50750856	1168.24699632	22.52554112	-67.47629081	-175.62514827
14.11000000	1871.91405611	1765.17450378	1515.54819387	1328.83027499	1328.91291485	1324.16768326	1169.49082632	22.62815042	-67.34658184	-213.65568125
14.12000000	1873.33387596	1767.63372009	1517.17047116	1329.80362191	1331.45289103	1326.92420634	1170.72855949	22.70087926	-67.20128984	-253.54316467
14.13000000	1874.59463312	1769.91961743	1518.39198033	1330.92419863	1333.91764337	1329.62975318	1171.93177193	22.76001859	-67.04453571	-291.67254997
14.14000000	1875.69654738	1772.02840544	1519.26417532	1332.09016002	1336.14072868	1332.13699914	1173.07203973	22.82185939	-66.88044040	-324.42878854
14.15000000	1876.63983859	1773.95629377	1519.83851012	1333.19966093	1337.95570377	1334.29861958	1174.12093898	22.90269263	-66.71312481	-348.19683183
14.16000000	1877.42472655	1775.69949204	1520.16643867	1334.15085621	1339.19612545	1335.96728985	1175.05004577	23.01880928	-66.54670986	-359.36163126
14.17000000	1878.05143108	1777.25420990	1520.29941495	1334.84190073	1339.69555051	1336.99568532	1175.83093619	23.18650030	-66.38531648	-354.30813824
14.18000000	1878.52017202	1778.61665698	1520.28889292	1335.17094934	1339.28753576	1337.23648136	1176.43518634	23.42205666	-66.23306558	-329.42130420
14.19000000	1878.83116917	1779.78304292	1520.18632654	1335.03615689	1337.80563800	1336.54235332	1176.83437231	23.74176934	-66.09407809	-281.08608056
14.20000000	1878.98464235	1780.74957737	1520.04316978	1334.33567825	1335.08341405	1334.76597656	1177.00007019	24.16192929	-65.97247493	-205.68741875
14.21000000	1878.98873563	1781.51915611	1519.91179491	1332.99645515	1331.01522472	1331.80602989	1176.90977605	24.69609201	-65.87166332	-100.89431083
14.22000000	1878.93339976	1782.16370027	1519.85405446	1331.24261403	1326.12314803	1328.03611392	1176.60210156	25.32957288	-65.78768259	22.36830971
14.23000000	1878.95684708	1782.79585219	1519.93739376	1329.47360432	1321.29958150	1324.11000765	1176.15171333	26.03102714	-65.71222541	145.35521520
14.24000000	1879.18782862	1783.52139343	1520.22436945	1328.06467769	1317.38373893	1320.64479132	1175.63039578	26.77067884	-65.63735619	250.41510645
14.25000000	1879.65098082	1784.36984370	1520.72632231	1327.11788342	1314.61637407	1317.84129668	1175.07536822	27.53717071	-65.55955713	332.23345153
14.26000000	1880.30951813	1785.32573236	1521.42437853	1326.57409612	1312.88518129	1315.65479123	1174.50345833	28.33001157	-65.47791668	392.77374919
14.27000000	1881.12586113	1786.37300724	1522.29927379	1326.37210718	1312.07329177	1314.03736857	1173.93123028	29.14885064	-65.39155697	434.09356561
14.28000000	1882.06243040	1787.49561621	1523.33174378	1326.45070804	1312.06383666	1312.94112231	1173.37524822	29.99333718	-65.29960014	458.25046699
14.29000000	1883.08164650	1788.67750712	1524.50252418	1326.74869013	1312.73994710	1312.31814606	1172.85207628	30.86312040	-65.20116833	467.30201950
14.30000000	1884.14593003	1789.90262781	1525.79235066	1327.20484485	1313.98475427	1312.12053343	1172.37827862	31.75784956	-65.09538366	463.30578933
14.31000000	1885.21770155	1791.15492613	1527.18195891	1327.75796363	1315.68138931	1312.30037802	1171.97041939	32.67717389	-64.98136828	448.31934266
14.32000000	1886.25938164	1792.41834994	1528.65208461	1328.34683789	1317.71298339	1312.80977345	1171.64506274	33.62074264	-64.85824432	424.40024566
14.33000000	1887.23339087	1793.67684709	1530.18346344	1328.91025906	1319.96266766	1313.60081332	1171.41877280	34.58820503	-64.72513392	393.60606452
14.34000000	1888.10214983	1794.91436542	1531.75683108	1329.38701856	1322.31357327	1314.62559125	1171.30811374	35.57921031	-64.58115920	357.99436543
14.35000000	1888.82807908	1796.11485279	1533.35292321	1329.71590780	1324.64883139	1315.83620084	1171.32964970	36.59340772	-64.42544232	319.62271457
14.36000000	1889.37359921	1797.26225705	1534.95247550	1329.83571822	1326.85157316	1317.18473569	1171.49994483	37.63044649	-64.25710539	280.54867811
14.37000000	1889.70113079	1798.34052605	1536.53622365	1329.68524122	1328.80492976	1318.62328943	1171.83556328	38.68997586	-64.07527056	242.82982224
14.38000000	1889.77309440	1799.33360765	1538.08490333	1329.20326824	1330.39203232	1320.10395565	1172.35306919	39.77164508	-63.87905996	208.52371315
